HIERARCHY
ROOT hip
{
  OFFSET 0 0 0
  CHANNELS 6 Xposition Yposition Zposition Zrotation Yrotation Xrotation
  JOINT abdomen
  {
    OFFSET 0 20.6881 -0.73152
    CHANNELS 3 Zrotation Xrotation Yrotation
    JOINT chest
    {
      OFFSET 0 11.7043 -0.48768
      CHANNELS 3 Zrotation Xrotation Yrotation
      JOINT neck
      {
        OFFSET 0 22.1894 -2.19456
        CHANNELS 3 Zrotation Xrotation Yrotation
        JOINT head
        {
          OFFSET -0.24384 7.07133 1.2192
          CHANNELS 3 Zrotation Xrotation Yrotation
          JOINT leftEye
          {
            OFFSET 4.14528 8.04674 8.04672
            CHANNELS 3 Zrotation Xrotation Yrotation
            End Site
            {
              OFFSET 1 0 0
            }
          }
          JOINT rightEye
          {
            OFFSET -3.6576 8.04674 8.04672
            CHANNELS 3 Zrotation Xrotation Yrotation
            End Site
            {
              OFFSET 1 0 0
            }
          }
        }
      }
      JOINT rCollar
      {
        OFFSET -2.68224 19.2634 -4.8768
        CHANNELS 3 Zrotation Xrotation Yrotation
        JOINT rShldr
        {
          OFFSET -8.77824 -1.95073 1.46304
          CHANNELS 3 Zrotation Xrotation Yrotation
          JOINT rForeArm
          {
            OFFSET -28.1742 -1.7115 0.48768
            CHANNELS 3 Zrotation Xrotation Yrotation
            JOINT rHand
            {
              OFFSET -22.5879 0.773209 7.07136
              CHANNELS 3 Zrotation Xrotation Yrotation
              JOINT rThumb1
              {
                OFFSET -1.2192 -0.487915 3.41376
                CHANNELS 3 Zrotation Xrotation Yrotation
                JOINT rThumb2
                {
                  OFFSET -3.37035 -0.52449 3.41376
                  CHANNELS 3 Zrotation Xrotation Yrotation
                  End Site
                  {
                    OFFSET -1.78271 -1.18214 1.43049
                  }
                }
              }
              JOINT rIndex1
              {
                OFFSET -7.75947 0.938293 5.60832
                CHANNELS 3 Zrotation Xrotation Yrotation
                JOINT rIndex2
                {
                  OFFSET -2.54057 -0.884171 1.56538
                  CHANNELS 3 Zrotation Xrotation Yrotation
                  End Site
                  {
                    OFFSET -1.62519 -0.234802 1.16502
                  }
                }
              }
              JOINT rMid1
              {
                OFFSET -8.24714 1.18213 3.41376
                CHANNELS 3 Zrotation Xrotation Yrotation
                JOINT rMid2
                {
                  OFFSET -3.10165 -0.590103 1.0647
                  CHANNELS 3 Zrotation Xrotation Yrotation
                  End Site
                  {
                    OFFSET -2.48547 -0.328903 0.83742
                  }
                }
              }
              JOINT rRing1
              {
                OFFSET -8.82822 0.546677 1.51678
                CHANNELS 3 Zrotation Xrotation Yrotation
                JOINT rRing2
                {
                  OFFSET -2.60934 -0.819778 -0.0198488
                  CHANNELS 3 Zrotation Xrotation Yrotation
                  End Site
                  {
                    OFFSET -2.33842 -0.294052 0.168128
                  }
                }
              }
              JOINT rPinky1
              {
                OFFSET -8.27202 -0.0477905 -0.4584
                CHANNELS 3 Zrotation Xrotation Yrotation
                JOINT rPinky2
                {
                  OFFSET -1.82734 -0.647385 -0.700984
                  CHANNELS 3 Zrotation Xrotation Yrotation
                  End Site
                  {
                    OFFSET -1.69225 -0.51767 -0.607171
                  }
                }
              }
            }
          }
        }
      }
      JOINT lCollar
      {
        OFFSET 2.68224 19.2634 -4.8768
        CHANNELS 3 Zrotation Xrotation Yrotation
        JOINT lShldr
        {
          OFFSET 8.77824 -1.95073 1.46304
          CHANNELS 3 Zrotation Xrotation Yrotation
          JOINT lForeArm
          {
            OFFSET 28.1742 -1.7115 0.48768
            CHANNELS 3 Zrotation Xrotation Yrotation
            JOINT lHand
            {
              OFFSET 22.5879 0.773209 7.07136
              CHANNELS 3 Zrotation Xrotation Yrotation
              JOINT lThumb1
              {
                OFFSET 1.2192 -0.487915 3.41376
                CHANNELS 3 Zrotation Xrotation Yrotation
                JOINT lThumb2
                {
                  OFFSET 3.37035 -0.52449 3.41376
                  CHANNELS 3 Zrotation Xrotation Yrotation
                  End Site
                  {
                    OFFSET 1.78271 -1.18214 1.43049
                  }
                }
              }
              JOINT lIndex1
              {
                OFFSET 7.75947 0.938293 5.60832
                CHANNELS 3 Zrotation Xrotation Yrotation
                JOINT lIndex2
                {
                  OFFSET 2.54057 -0.884171 1.56538
                  CHANNELS 3 Zrotation Xrotation Yrotation
                  End Site
                  {
                    OFFSET 1.62519 -0.234802 1.16502
                  }
                }
              }
              JOINT lMid1
              {
                OFFSET 8.24714 1.18213 3.41376
                CHANNELS 3 Zrotation Xrotation Yrotation
                JOINT lMid2
                {
                  OFFSET 3.10165 -0.590103 1.0647
                  CHANNELS 3 Zrotation Xrotation Yrotation
                  End Site
                  {
                    OFFSET 2.48547 -0.328903 0.83742
                  }
                }
              }
              JOINT lRing1
              {
                OFFSET 8.82822 0.546677 1.51678
                CHANNELS 3 Zrotation Xrotation Yrotation
                JOINT lRing2
                {
                  OFFSET 2.60934 -0.819778 -0.0198488
                  CHANNELS 3 Zrotation Xrotation Yrotation
                  End Site
                  {
                    OFFSET 2.33842 -0.294052 0.168128
                  }
                }
              }
              JOINT lPinky1
              {
                OFFSET 8.27202 -0.0477905 -0.4584
                CHANNELS 3 Zrotation Xrotation Yrotation
                JOINT lPinky2
                {
                  OFFSET 1.82734 -0.647385 -0.700984
                  CHANNELS 3 Zrotation Xrotation Yrotation
                  End Site
                  {
                    OFFSET 1.69225 -0.51767 -0.607171
                  }
                }
              }
            }
          }
        }
      }
    }
  }
  JOINT rButtock
  {
    OFFSET -8.77824 4.35084 1.2192
    CHANNELS 3 Zrotation Xrotation Yrotation
    JOINT rThigh
    {
      OFFSET 0 -1.70687 -2.19456
      CHANNELS 3 Zrotation Xrotation Yrotation
      JOINT rShin
      {
        OFFSET 0 -36.8199 0.73152
        CHANNELS 3 Zrotation Xrotation Yrotation
        JOINT rFoot
        {
          OFFSET 0.73152 -45.1104 -5.12064
          CHANNELS 3 Zrotation Xrotation Yrotation
          End Site
          {
            OFFSET -1.1221 -3.69964 12.103
          }
        }
      }
    }
  }
  JOINT lButtock
  {
    OFFSET 8.77824 4.35084 1.2192
    CHANNELS 3 Zrotation Xrotation Yrotation
    JOINT lThigh
    {
      OFFSET 0 -1.70687 -2.19456
      CHANNELS 3 Zrotation Xrotation Yrotation
      JOINT lShin
      {
        OFFSET 0 -36.8199 0.73152
        CHANNELS 3 Zrotation Xrotation Yrotation
        JOINT lFoot
        {
          OFFSET -0.73152 -45.1104 -5.12064
          CHANNELS 3 Zrotation Xrotation Yrotation
          End Site
          {
            OFFSET 1.1221 -3.69964 12.103
          }
        }
      }
    }
  }
}
MOTION
Frames:	7
Frame Time:	0.03333
-81.5365 60.4661 -14.794099999999998 133.554337 71.972902 140.594223 -18.416489 9.25874 -115.789752 5.265195 7.967641 115.494542 7.283075 29.876793 162.336955 -4.617298 40.146994 176.469361 -2.250658 -0.307002 15.533113 14.872219 7.6938 54.514455 -154.744439 -24.349147 170.118772 164.297881 -63.899462 -156.970518 123.318016 81.910767 166.996665 162.665184 -27.004503 141.463178 -172.733815 -1.235519 93.141007 39.564192 -58.864766 47.788823 40.816445 -76.131142 -1.423039 -27.121261 51.391189 25.963108 4.350449 -0.899417 11.055383 -5.633466 64.458967 -16.90801 9.923754 28.031137 -3.621486 -91.843492 60.383056 84.842981 -44.305108 -49.99358 -44.705101 -119.714502 -11.976793 -141.544651 145.431707 36.718166 -141.774434 -168.723004 36.66248 -121.034797 179.793797 -74.368301 -104.655522 -171.522899 -19.150074 -142.60745 176.141983 -26.306037 -95.429209 33.703514 -0.817372 -5.624774 -3.863253 3.554253 1.907424 158.634476 -1.324557 -123.127499 6.662302 27.068578 -3.968972 172.558614 -15.929984 -151.788924 139.398174 10.711473 -169.365525 58.501947 -78.295923 97.82703 -10.803894 29.241908 0.498015 68.907043 -72.433933 78.361027 -52.650729 28.312358 -28.354647 96.003874 -70.727888 -169.136348 84.987751 -41.06494 -179.621042 12.212555 37.06876 85.629805 -12.848387 0.845988 -18.827181 6.819671 13.16984 152.305286 34.2614 -24.150425 109.711436 66.59304 9.487 153.741478
-81.89229999999999 60.6243 -14.7787 133.259801 71.605526 140.390676 -18.682831 9.499344 -95.891364 8.186124 5.470427 94.222962 12.419074 22.566546 109.501242 -27.516005 22.590496 -126.109554 -3.429555 -0.355115 11.819847 12.360201 5.800074 50.143428 -1.793445 21.648486 2.905922 80.937131 -44.764695 20.772673 -70.834514 48.142116 92.133547 7.296507 -11.520649 2.774287 -166.096766 5.589894 91.054332 -1.077669 -46.318556 31.503243 -152.21475 -9.5814 125.087501 -123.473959 47.717761 95.954023 -158.109038 -10.573398 131.626204 -146.7742 -4.877198 117.440548 11.224693 26.133816 -4.69484 25.601693 -61.620121 31.831627 10.280884 25.663532 7.350707 -150.658594 0.133297 -160.788127 89.761993 64.304253 -86.841826 118.882662 8.857852 -92.694839 -29.434619 -9.533809 60.296045 -179.510771 10.099927 -143.872025 -121.63062 -57.678797 -56.379184 55.156936 19.340685 -29.988734 -15.897183 -20.720659 8.606644 2.054466 8.415702 8.969352 -3.231884 -0.955682 3.347933 -0.530508 -24.943186 3.946065 -6.851318 -26.652538 -2.269046 155.125926 62.498154 -151.758613 31.094964 -34.758876 28.839386 -52.276753 59.346486 4.239084 -44.43667 25.270321 -24.965189 86.553964 -77.492043 -180.0 85.279083 -31.842485 166.644737 141.450059 -30.371177 -117.971476 24.685544 -2.480079 11.584095 -24.432103 19.746218 80.084741 36.750809 -9.787944 -1.643149 -1.202633 -32.636464 -56.077252
-82.3229 60.7871 -14.7089 129.746181 72.905469 137.607642 -18.51752 7.385193 -110.995476 5.704602 7.133625 108.685239 11.73884 16.92873 77.623989 -28.996882 6.251361 -96.637833 -6.319181 -0.570349 10.304399 9.481034 3.856449 44.192216 -154.770182 -14.437887 165.839099 141.739965 0.486015 177.268889 -15.839556 -0.167746 35.791013 -1.32055 16.033524 0.828943 -175.064334 -4.250306 91.749446 46.50484 -57.780724 53.306557 -48.81085 41.746693 32.191997 -65.118198 46.356327 52.476634 29.704739 -39.428089 11.568013 92.821292 -88.599433 92.321832 -28.490144 82.379083 54.516445 -20.157154 2.774645 -12.079359 -1.341282 -9.171958 -2.533415 -5.27825 -56.062665 -10.375337 -7.710378 -88.617433 8.158211 -124.539075 32.612763 98.556442 89.331116 41.57024 -67.356313 -49.820999 -64.003461 -35.492749 76.452123 45.522056 -46.627665 -80.929663 -67.924139 -39.94459 40.751655 42.940644 -35.075517 -0.946137 26.207433 9.595726 -2.366081 0.336218 1.333868 4.841378 -1.525895 4.165187 68.743156 61.606119 -90.913191 -38.299203 59.263795 25.821459 135.227497 -14.571441 129.215516 90.528564 -38.587247 79.689383 -38.278133 23.071448 -22.011187 75.240904 -79.54144 -9.869333 -82.116643 27.324469 -7.848878 10.98616 47.070163 89.259578 85.364114 41.047319 54.877694 -72.413084 61.683353 -0.0 37.275203 20.67401 125.614413 161.995415 13.836261 138.099487
-82.7998 60.8958 -14.648 127.664801 73.943793 135.974128 -17.943389 7.819287 -69.002601 10.032914 0.853093 66.412688 -8.194019 24.441391 -97.196518 33.660052 11.738134 75.080905 -7.631191 -0.676129 10.111668 6.862851 2.523945 40.345534 -6.94185 35.258694 10.009218 60.741939 2.762469 29.222407 -28.717376 4.03235 33.323266 3.460033 1.072305 1.964358 -172.035931 -1.935189 90.510332 -34.640597 -38.065114 20.988652 88.540241 -77.046424 46.423402 25.134805 -41.561245 -12.696768 -39.77871 44.711457 43.280317 -151.56484 65.745773 162.134392 -22.904292 -52.96622 -48.794655 30.450026 4.947687 18.787076 -151.597844 45.327421 -149.629275 -43.938974 -32.482544 -31.832767 5.721162 0.152858 -2.516832 91.875863 12.936976 -170.683725 -168.599494 -18.33489 156.230696 11.731551 43.130625 -2.008687 -118.673142 -56.919933 -55.902616 6.074461 -27.738233 5.836874 156.340617 -37.837973 -126.804876 174.988779 -35.679574 -102.402855 55.357276 60.206996 -50.3509 0.205852 27.71789 1.961013 -6.010188 -14.399866 -7.238306 7.62543 -17.227552 9.305025 -53.706896 86.120365 15.676372 81.606878 82.05774 -113.104041 8.026811 14.081652 0.0 -95.301225 -62.339602 -94.698259 -38.460341 77.922443 141.539488 -10.953767 44.771487 -78.331892 -35.593829 11.979637 -35.718445 27.154907 16.613273 -180.0 15.346239 -33.546978 -71.067403 -144.530763 3.588134 15.201151
-83.26750000000001 60.9618 -14.646 127.75714 74.531047 136.216939 -17.243242 6.281192 -86.186501 8.042125 3.483391 82.658629 -1.537347 30.967439 -151.223745 21.367397 36.144144 124.820292 -7.322026 -0.628764 9.803038 4.669128 1.605472 37.933705 5.242378 -26.567223 -5.659251 -117.661986 -1.094806 -160.233094 8.504636 20.753382 -74.545126 159.634417 -32.023928 140.388459 89.261839 -51.45878 42.496171 -173.680345 -44.830694 145.701152 -30.480998 25.653285 16.253005 -64.859545 53.385134 62.014857 45.150363 -55.018212 18.146249 -16.492493 -29.803701 0.116526 -131.755397 -6.679236 -164.674524 14.938938 -27.479889 -37.058655 -142.901763 12.611442 -141.648369 3.574828 14.567001 -11.951722 164.718943 -29.311069 -164.750424 81.380373 -44.571373 38.993929 168.603533 -47.026468 146.765611 1.745099 20.230673 -0.029519 5.828448 12.21171 3.25226 50.940978 14.71723 -35.635941 107.142904 36.456317 -94.162169 -12.167051 13.561341 7.319287 124.348654 50.198579 -116.496155 -24.038164 -42.431384 2.16227 -4.032374 -1.244109 -9.899079 8.476945 -25.575063 13.70107 -7.989547 29.709649 -9.005485 -0.796082 -30.226781 2.273569 111.640509 48.085237 29.992223 -169.424374 -9.200865 -100.4313 -72.779102 15.059625 95.076554 -25.642493 -4.314596 4.427451 -32.647759 10.291529 -32.913043 24.89092 14.808605 -180.0 20.605455 -24.175702 168.347332 172.152322 19.569786 -89.997551
-83.7005 61.013099999999994 -14.707 129.457413 74.636174 137.934378 -16.799568 5.817123 -84.59854 7.609577 3.12003 80.297338 10.667935 26.830941 128.672099 -24.446995 30.705802 -143.16824 -5.786743 -0.450382 8.893227 2.80804 0.922987 36.384741 -153.373529 -74.182724 179.498378 -40.880339 -24.961391 -47.42983 105.901659 39.499611 -91.368953 -142.972827 71.991373 123.285026 -163.560436 4.031998 88.384753 -4.703192 -42.96164 31.286956 172.930903 -53.286139 115.379108 -173.519751 -4.597091 116.477001 29.166707 -37.86853 9.029683 -21.180491 -15.533063 -7.130987 14.497532 12.929759 -9.177583 -79.886931 58.325643 72.575046 -142.117007 10.011518 -140.375497 -143.857763 -3.928081 -125.729801 64.757197 -87.842941 81.549379 72.462709 -26.377005 90.285371 -1.082352 -5.381952 61.132264 -157.151612 -33.247342 -138.567306 2.098063 6.701986 4.346061 35.884952 11.784731 -24.853266 -56.172951 -72.167749 -9.270275 -177.108476 -32.524758 -107.428502 170.177497 -44.393389 -146.007488 49.964771 53.015167 -43.271819 -6.002368 -15.053441 -4.086897 171.148798 -0.473246 -175.203871 0.079383 0.008526 -1.78194 -5.900933 -20.046505 4.58139 105.175729 45.707384 31.353468 -164.293406 -9.513157 -120.443674 -72.789504 -0.77862 100.776837 -33.043868 -4.119673 4.85197 -121.708145 73.402364 -38.357714 86.212677 69.959905 -0.0 -31.455269 13.303945 154.735758 -87.723212 16.915779 -12.681166
-84.09790000000001 61.0495 -14.8017 131.973919 74.408571 140.52703 -16.454638 4.661854 -105.385811 4.836273 5.111255 100.167273 -8.166539 28.63322 -115.335522 33.130423 23.755722 89.866318 -3.603128 -0.240386 7.631261 1.147355 0.363403 35.148246 1.6402 1.046063 1.070864 -110.331776 -6.839579 178.546321 -85.341505 -35.991997 -110.300081 27.204714 -46.92373 18.4015 1.400644 -5.739318 -0.38787 -30.359827 38.527622 20.884447 -54.240152 36.008101 35.68394 130.100504 -63.366038 54.661883 -20.866021 38.558195 28.513554 -166.361909 44.729636 165.818781 -130.403725 -4.707951 -163.755882 161.179559 70.767457 -122.259353 -142.889262 10.091761 -139.925007 -24.972425 -25.603778 -25.454984 89.248151 67.916239 -87.619296 106.144489 8.189714 -91.182001 91.763588 -51.4344 129.237582 -49.808635 -59.146817 -38.893094 2.870504 6.785804 3.739883 -11.915101 -30.254239 3.586578 12.219987 20.374425 -7.513484 160.387158 -12.476186 -121.027862 164.984416 -28.227664 -146.116295 170.641253 -17.831801 -136.932329 -6.634511 -24.525452 0.456755 8.102887 26.054682 -5.796076 -10.840689 41.424064 -13.071527 26.388824 -55.820014 30.134874 159.662968 61.153101 14.925938 164.954459 -8.680368 -94.188207 -79.527077 -9.113188 0.222312 84.485926 -69.627966 -177.991505 20.938758 -1.172124 10.03911 -21.093902 15.659638 -0.0 14.161731 27.917251 45.626978 165.176673 -18.909093 17.007459
